<?xml version="1.0" encoding="UTF-8"?>
<svg version="1.1" xmlns="http://www.w3.org/2000/svg" width="800" height="500">
<path d="M0 0 C264 0 528 0 800 0 C800 165 800 330 800 500 C536 500 272 500 0 500 C0 335 0 170 0 0 Z " fill="#FEFEFE" transform="translate(0,0)"/>
<path d="M0 0 C18.15 0 36.3 0 55 0 C55 1.65 55 3.3 55 5 C56.32 5 57.64 5 59 5 C59 11.27 59 17.54 59 24 C57.68 24 56.36 24 55 24 C54.67 22.35 54.34 20.7 54 19 C53.4225 18.95875 52.845 18.9175 52.25 18.875 C48.88399342 17.56599744 47.8691376 14.99062016 46 12 C41.45398272 9.72699136 34.91320403 10.31265844 30 10 C30 17.26 30 24.52 30 32 C36.84338762 30.93245385 36.84338762 30.93245385 38.33984375 27.6171875 C38.53707031 26.71226562 38.73429687 25.80734375 38.9375 24.875 C39.15277344 23.96492188 39.36804688 23.05484375 39.58984375 22.1171875 C39.79287109 21.06917969 39.79287109 21.06917969 40 20 C41.65 20 43.3 20 45 20 C45 21.65 45 23.3 45 25 C46.32 25 47.64 25 49 25 C49.33 33.91 49.66 42.82 50 52 C50.66 52 51.32 52 52 52 C52.66 50.35 53.32 48.7 54 47 C56.97 47.495 56.97 47.495 60 48 C60 49.98 60 51.96 60 54 C61.32 54 62.64 54 64 54 C64.02781263 55.77073747 64.04674879 57.54161417 64.0625 59.3125 C64.07410156 60.29863281 64.08570313 61.28476562 64.09765625 62.30078125 C63.9679923 67.21245178 63.44483668 72.1067965 63 77 C43.53 77 24.06 77 4 77 C4 75.68 4 74.36 4 73 C2.35 72.67 0.7 72.34 -1 72 C-1 70.68 -1 69.36 -1 68 C3.455 67.01 3.455 67.01 8 66 C8 47.52 8 29.04 8 10 C6.68 10 5.36 10 4 10 C4 8.35 4 6.7 4 5 C2.68 5 1.36 5 0 5 C0 3.35 0 1.7 0 0 Z " fill="#F16F77" transform="translate(282,214)"/>
<path d="M0 0 C6.10140685 -0.12425323 12.20206584 -0.21464741 18.30444336 -0.2746582 C20.37716514 -0.29969303 22.4497996 -0.33373145 24.5222168 -0.37719727 C27.5137291 -0.43833661 30.50406734 -0.46632048 33.49609375 -0.48828125 C34.41208847 -0.51408768 35.32808319 -0.5398941 36.27183533 -0.56648254 C44.13516745 -0.56985623 49.48998834 2.10424038 55.5 7.0625 C58.76581634 11.2808461 58.45646727 16.74572557 58.40625 21.88671875 C57.65947759 27.60958037 54.75544284 31.79187115 50.2890625 35.37109375 C42.50633796 40.17807067 34.82519759 40.21602476 26 40 C26.13844847 43.79197449 26.28700744 47.5834859 26.4375 51.375 C26.47681641 52.45523438 26.51613281 53.53546875 26.55664062 54.6484375 C26.59853516 55.6796875 26.64042969 56.7109375 26.68359375 57.7734375 C26.72025146 58.72653809 26.75690918 59.67963867 26.79467773 60.66162109 C26.85763465 63.02132349 26.85763465 63.02132349 28 65 C30.3140622 65.73075648 32.64828869 66.40138258 35 67 C35 68.32 35 69.64 35 71 C23.45 71 11.9 71 0 71 C0 69.68 0 68.36 0 67 C3.96 66.01 3.96 66.01 8 65 C8.0926611 57.62004786 8.16374461 50.24022104 8.20724869 42.85980511 C8.22812821 39.43277637 8.25645083 36.00614546 8.30175781 32.5793457 C8.35351325 28.64018508 8.37294237 24.70118582 8.390625 20.76171875 C8.41127014 19.53039719 8.43191528 18.29907562 8.45318604 17.03044128 C8.45363922 15.31900688 8.45363922 15.31900688 8.45410156 13.57299805 C8.46298401 12.567061 8.47186646 11.56112396 8.48101807 10.52470398 C8.22809525 7.86840678 8.22809525 7.86840678 6.11224365 6.19465637 C4.04898057 5.02770275 2.32434397 4.41506142 0 4 C0 2.68 0 1.36 0 0 Z " fill="#028E4A" transform="translate(460,215)"/>
<path d="M0 0 C3.8333832 1.91375639 8.03394583 4.06789165 10 8 C10.58912092 12.14621814 11.17620342 16.34371354 8.66015625 19.88671875 C7.14605156 21.30107066 5.57544294 22.65430915 4 24 C4 24.99 4 25.98 4 27 C4.99 27.33 5.98 27.66 7 28 C7.66 26.35 8.32 24.7 9 23 C11.64 23 14.28 23 17 23 C17 23.66 17 24.32 17 25 C17.99 25 18.98 25 20 25 C19.61523813 28.84761867 19.14282072 31.71985166 17.375 35.1875 C15.85359662 37.77769146 15.85359662 37.77769146 16 40 C17.00259507 42.00519014 18.11753003 43.42067644 19.5625 45.125 C22 48 22 48 22 50 C20.37536158 50.05395478 18.75021459 50.09277195 17.125 50.125 C15.76761719 50.15980469 15.76761719 50.15980469 14.3828125 50.1953125 C12 50 12 50 10 48 C7.62843009 48.3387957 5.65088045 49.14475689 3.4375 50.0625 C-1.4788949 51.40333497 -5.9561052 51.93723435 -11 51 C-14.24500874 49.1264259 -16.55622847 46.81664747 -19 44 C-20.2684375 42.6078125 -20.2684375 42.6078125 -21.5625 41.1875 C-23.63553001 36.59078128 -23.62319599 32.77683391 -22 28 C-19.98828168 25.46783713 -17.81249016 23.59785815 -15 22 C-14.34 22 -13.68 22 -13 22 C-13.28875 21.49210937 -13.5775 20.98421875 -13.875 20.4609375 C-16.17371814 16.19873095 -17.8612106 12.95196095 -17 8 C-13.06343088 0.68922877 -8.09368775 -1.51837068 0 0 Z " fill="#545454" transform="translate(402,228)"/>
<path d="M0 0 C11.55 0 23.1 0 35 0 C35 0.66 35 1.32 35 2 C31.04 2 27.08 2 23 2 C23 11.24 23 20.48 23 30 C30.24822148 29.35954625 30.24822148 29.35954625 34 28 C35.12085312 25.6569191 35.12085312 25.6569191 36 23 C36.65213539 21.65949948 37.31379969 20.32338632 38 19 C38.99 19 39.98 19 41 19 C41 27.91 41 36.82 41 46 C40.01 46.495 40.01 46.495 39 47 C36 45 36 45 35.3125 41.875 C35.1578125 40.451875 35.1578125 40.451875 35 39 C34.01 39 33.02 39 32 39 C31.54625 38.505 31.0925 38.01 30.625 37.5 C29.04398786 35.73685437 29.04398786 35.73685437 26.375 35.75 C24.04703565 35.74323161 24.04703565 35.74323161 23 37 C22.85388036 38.97468641 22.77261383 40.95424132 22.71875 42.93359375 C22.68136719 44.13951172 22.64398438 45.34542969 22.60546875 46.58789062 C22.57066406 47.85826172 22.53585937 49.12863281 22.5 50.4375 C22.43133019 52.93631824 22.35862144 55.43502981 22.28125 57.93359375 C22.23581055 59.6050647 22.23581055 59.6050647 22.18945312 61.31030273 C22 64 22 64 21 66 C30.57 65.67 40.14 65.34 50 65 C49.34 63.35 48.68 61.7 48 60 C49.32 59.34 50.64 58.68 52 58 C51.67 61.63 51.34 65.26 51 69 C33.51 69 16.02 69 -2 69 C-1.505 68.01 -1.505 68.01 -1 67 C1.31 67 3.62 67 6 67 C6 45.55 6 24.1 6 2 C4.02 2 2.04 2 0 2 C0 1.34 0 0.68 0 0 Z " fill="#FC5657" transform="translate(285,216)"/>
<path d="M0 0 C6.10140685 -0.12425323 12.20206584 -0.21464741 18.30444336 -0.2746582 C20.37716514 -0.29969303 22.4497996 -0.33373145 24.5222168 -0.37719727 C27.5137291 -0.43833661 30.50406734 -0.46632048 33.49609375 -0.48828125 C34.41208847 -0.51408768 35.32808319 -0.5398941 36.27183533 -0.56648254 C44.13516745 -0.56985623 49.48998834 2.10424038 55.5 7.0625 C58.76581634 11.2808461 58.45646727 16.74572557 58.40625 21.88671875 C57.65947759 27.60958037 54.75544284 31.79187115 50.2890625 35.37109375 C44.3625411 39.03159226 38.60635477 40.10256017 31.76171875 40.046875 C30.14269653 40.03672363 30.14269653 40.03672363 28.4909668 40.02636719 C27.66894775 40.01766602 26.84692871 40.00896484 26 40 C25.97528812 34.92798214 25.95713436 29.85599929 25.94506836 24.78393555 C25.94003842 23.0583434 25.93321374 21.33275552 25.92456055 19.60717773 C25.91243639 17.1274307 25.90675831 14.64774 25.90234375 12.16796875 C25.89460182 11.01001045 25.89460182 11.01001045 25.88670349 9.82865906 C25.88636682 6.6169772 25.97673422 4.06979734 27 1 C19.41 1.33 11.82 1.66 4 2 C5.65 2.99 7.3 3.98 9 5 C8.34 5.66 7.68 6.32 7 7 C4.69 6.01 2.38 5.02 0 4 C0 2.68 0 1.36 0 0 Z " fill="#038D4A" transform="translate(460,215)"/>
<path d="M0 0 C1.65 0 3.3 0 5 0 C5 1.65 5 3.3 5 5 C6.32 5 7.64 5 9 5 C9.33 13.91 9.66 22.82 10 32 C10.66 32 11.32 32 12 32 C12.66 30.35 13.32 28.7 14 27 C15.98 27.33 17.96 27.66 20 28 C20 29.98 20 31.96 20 34 C21.32 34 22.64 34 24 34 C24.02781263 35.77073747 24.04674879 37.54161417 24.0625 39.3125 C24.07410156 40.29863281 24.08570313 41.28476562 24.09765625 42.30078125 C23.9679923 47.21245178 23.44483668 52.1067965 23 57 C3.53 57 -15.94 57 -36 57 C-36 55.68 -36 54.36 -36 53 C-32.59992715 52.24136301 -29.41522756 51.85763977 -25.93432617 51.79467773 C-24.95368698 51.77473251 -23.97304779 51.75478729 -22.96269226 51.73423767 C-21.9166835 51.71752518 -20.87067474 51.70081268 -19.79296875 51.68359375 C-18.71243729 51.66281265 -17.63190582 51.64203156 -16.51863098 51.62062073 C-13.07498389 51.55535964 -9.63126205 51.49634925 -6.1875 51.4375 C-3.84960172 51.39429249 -1.51171093 51.35067749 0.82617188 51.30664062 C6.55070511 51.19970224 12.27531335 51.09836884 18 51 C18.33 44.07 18.66 37.14 19 30 C17.68 30 16.36 30 15 30 C14.01 32.97 13.02 35.94 12 39 C11.34 39 10.68 39 10 39 C9.896875 39.598125 9.79375 40.19625 9.6875 40.8125 C8.89363064 43.33844795 8.04427591 44.34885407 6 46 C0.83608171 47.7213061 -4.59291236 47.05353552 -10 47 C-10 38.75 -10 30.5 -10 22 C-7.36 22.33 -4.72 22.66 -2 23 C-0.6875 25 -0.6875 25 0 27 C0.99 27.33 1.98 27.66 3 28 C3.33 19.09 3.66 10.18 4 1 C3.01 1 2.02 1 1 1 C0.67 1.66 0.34 2.32 0 3 C0 2.01 0 1.02 0 0 Z " fill="#AEA6A5" transform="translate(322,234)"/>
<path d="M0 0 C0.99 0.33 1.98 0.66 3 1 C3 1.66 3 2.32 3 3 C4.65 2.34 6.3 1.68 8 1 C7 4 7 4 5 5 C4.95745644 6.99954746 4.95919217 9.00041636 5 11 C6.06645115 12.29633621 6.06645115 12.29633621 8.5625 12.0625 C9.366875 12.041875 10.17125 12.02125 11 12 C11.2475 11.030625 11.495 10.06125 11.75 9.0625 C12.1625 8.051875 12.575 7.04125 13 6 C15 5.25 15 5.25 17 5 C17.66 4.34 18.32 3.68 19 3 C19.62283737 11.9100346 19.62283737 11.9100346 17.25 16.0625 C14.98378791 18.01396041 13.8336508 18.41372742 11 19 C10.67 19.99 10.34 20.98 10 22 C7.31720027 24.68279973 4.61320866 25.01457946 1 26 C-0.39287806 27.17036305 -0.39287806 27.17036305 -0.1875 30.4375 C-0.39564928 34.05032721 -0.39564928 34.05032721 2 36 C4.32741155 36.09987027 6.5828592 35.93198502 8.90625 35.77734375 C9.5971875 35.85082031 10.288125 35.92429687 11 36 C11.66 36.99 12.32 37.98 13 39 C13.66 39 14.32 39 15 39 C15.33 39.99 15.66 40.98 16 42 C10.921701 45.12510708 6.80402601 45.73814268 1 45 C-4.22561323 43.37234998 -6.96372759 41.55440862 -10 37 C-11.89059715 33.21880571 -11.11011924 28.96731139 -10 25 C-8.00646072 22.45186708 -5.81249403 20.59786035 -3 19 C-2.34 19 -1.68 19 -1 19 C-1.28875 18.49210937 -1.5775 17.98421875 -1.875 17.4609375 C-4.18784606 13.17253544 -5.69756223 9.99919599 -5 5 C-4.34 4.01 -3.68 3.02 -3 2 C-2.01 2 -1.02 2 0 2 C0 1.34 0 0.68 0 0 Z " fill="#575757" transform="translate(390,231)"/>
<path d="M0 0 C3.83485391 1.90279011 8.0360357 4.07207141 10 8 C11.18621285 16.348536 11.18621285 16.348536 8.6953125 19.81640625 C7.61734308 20.80411508 6.51285218 21.76372251 5.3828125 22.69140625 C3.44156539 24.52846213 3.49680563 26.44499961 3 29 C0.4375 30.3125 0.4375 30.3125 -2 31 C-1.34 33.31 -0.68 35.62 0 38 C-2 40 -2 40 -5.9375 40.3125 C-8.43791894 40.23081662 -9.77205801 40.12109418 -12 38.9375 C-13.58433618 35.86784865 -13.36248449 33.38318857 -13 30 C-11.40592912 27.48304598 -10.38780681 27.0969517 -7.5 26.375 C-6.675 26.25125 -5.85 26.1275 -5 26 C-4.01 25.67 -3.02 25.34 -2 25 C-1.67 23.35 -1.34 21.7 -1 20 C0.32 20 1.64 20 3 20 C5.14875399 18.15821086 5.92991554 16.78136721 6.18359375 13.953125 C6.18711381 11.96780968 6.09914207 9.98284144 6 8 C5.01 8.66 4.02 9.32 3 10 C2.34 9.67 1.68 9.34 1 9 C0.34 11.31 -0.32 13.62 -1 16 C-3.375 16.125 -3.375 16.125 -6 16 C-8 14 -8 14 -8.25 11 C-8 8 -8 8 -6 6 C-6.99 6 -7.98 6 -9 6 C-9 5.34 -9 4.68 -9 4 C-10.98 4.33 -12.96 4.66 -15 5 C-10.24191867 0.08331596 -6.82736211 -1.15020475 0 0 Z " fill="#5F5F5F" transform="translate(402,228)"/>
<path d="M0 0 C2 0 2 0 3.6015625 1.546875 C6.74989467 7.06964763 5.59503336 15.45124248 4.56640625 21.5859375 C3.15091999 26.17527804 0.64324899 28.58490449 -3.18359375 31.1875 C-5 32 -5 32 -9 32 C-9 32.66 -9 33.32 -9 34 C-12.75399798 35.2039337 -16.33217412 35.09877617 -20.25 35.0625 C-21.51328125 35.05347656 -22.7765625 35.04445313 -24.078125 35.03515625 C-25.04234375 35.02355469 -26.0065625 35.01195312 -27 35 C-26.93994146 37.91884528 -26.85291384 40.83261639 -26.75 43.75 C-26.73582031 44.575 -26.72164063 45.4 -26.70703125 46.25 C-26.53289188 51.3111287 -26.53289188 51.3111287 -23.953125 55.578125 C-23.30859375 56.04734375 -22.6640625 56.5165625 -22 57 C-25.375 56.6875 -25.375 56.6875 -29 56 C-31.23413013 52.64880481 -31.23847762 51.5822245 -31.1953125 47.67578125 C-31.18886719 46.64775391 -31.18242187 45.61972656 -31.17578125 44.56054688 C-31.15902344 43.48869141 -31.14226562 42.41683594 -31.125 41.3125 C-31.11597656 40.22904297 -31.10695313 39.14558594 -31.09765625 38.02929688 C-31.0740734 35.3526429 -31.04116126 32.67643203 -31 30 C-29.26363281 29.83564453 -29.26363281 29.83564453 -27.4921875 29.66796875 C-25.95306137 29.50842519 -24.41400221 29.34823461 -22.875 29.1875 C-22.11445313 29.11724609 -21.35390625 29.04699219 -20.5703125 28.97460938 C-13.0426678 28.16344077 -8.08398902 25.77101457 -3 20 C0.14594557 15.80791464 0.37697584 12.26448097 0.1875 7.1875 C0.17396484 6.49462891 0.16042969 5.80175781 0.14648438 5.08789062 C0.11138845 3.39158735 0.05758943 1.69568864 0 0 Z " fill="#D7D9D2" transform="translate(517,225)"/>
<path d="M0 0 C8 1 8 1 10.4375 2.9375 C13.45617172 6.92214668 13.21768725 10.47770421 13.25 15.3125 C13.270625 16.07240234 13.29125 16.83230469 13.3125 17.61523438 C13.34466676 22.24322687 13.00966447 25.25198327 10 29 C7 31 7 31 0 31 C0 20.77 0 10.54 0 0 Z " fill="#FBFAF9" transform="translate(486,219)"/>
<path d="M0 0 C0.33 0 0.66 0 1 0 C1.01030746 0.57549591 1.02061493 1.15099182 1.03123474 1.743927 C1.13961215 7.74638514 1.25418366 13.74870262 1.37231445 19.75097656 C1.41556337 21.98955332 1.45724536 24.22816094 1.49731445 26.46679688 C1.55526074 29.68889656 1.61888466 32.91084239 1.68359375 36.1328125 C1.70030624 37.12991241 1.71701874 38.12701233 1.73423767 39.15432739 C1.83416289 43.86632769 2.04107292 48.36575453 3 53 C4.43739513 53.02712066 5.87493863 53.04645067 7.3125 53.0625 C8.11300781 53.07410156 8.91351563 53.08570313 9.73828125 53.09765625 C12.16861334 53.09657855 12.16861334 53.09657855 15 52 C14.83628906 51.34644531 14.67257812 50.69289063 14.50390625 50.01953125 C13.87151437 46.23008226 13.89303291 42.51509049 13.9375 38.6875 C13.94201172 37.94693359 13.94652344 37.20636719 13.95117188 36.44335938 C13.96287825 34.62887101 13.98081102 32.81442466 14 31 C14.99 31 15.98 31 17 31 C17.02505615 31.65597168 17.0501123 32.31194336 17.07592773 32.98779297 C17.1917326 35.95040183 17.31452886 38.91268031 17.4375 41.875 C17.47681641 42.90753906 17.51613281 43.94007813 17.55664062 45.00390625 C17.59853516 45.99003906 17.64042969 46.97617187 17.68359375 47.9921875 C17.72025146 48.90339355 17.75690918 49.81459961 17.79467773 50.75341797 C17.86577065 53.03483481 17.86577065 53.03483481 19 55 C21.3140622 55.73075648 23.64828869 56.40138258 26 57 C26 58.32 26 59.64 26 61 C14.45 61 2.9 61 -9 61 C-9 59.68 -9 58.36 -9 57 C-6.36 56.34 -3.72 55.68 -1 55 C-0.67 36.85 -0.34 18.7 0 0 Z " fill="#028E4C" transform="translate(469,225)"/>
<path d="M0 0 C8 1 8 1 9.5 2.875 C10 5 10 5 10 8 C11.32 8 12.64 8 14 8 C14.33 9.98 14.66 11.96 15 14 C16.32 14 17.64 14 19 14 C19 18 19 18 17.125 20.0625 C16.073125 21.0215625 16.073125 21.0215625 15 22 C14.34 22.99 13.68 23.98 13 25 C8.64352194 25.41996896 4.38442431 25.12895366 0 25 C0 16.75 0 8.5 0 0 Z " fill="#F9F7F7" transform="translate(312,256)"/>
<path d="M0 0 C13.2395862 -0.4949378 13.2395862 -0.4949378 16.88671875 1.87890625 C18.89141434 3.89101292 19.78695575 5.48726549 21 8 C21.99 8.33 22.98 8.66 24 9 C24.75 10.9375 24.75 10.9375 25 13 C24.67 13.66 24.34 14.32 24 15 C23.34 15 22.68 15 22 15 C22 13.35 22 11.7 22 10 C21.01 10 20.02 10 19 10 C18.67 11.32 18.34 12.64 18 14 C18 13.01 18 12.02 18 11 C17.34 11 16.68 11 16 11 C15.67 12.32 15.34 13.64 15 15 C15 13.35 15 11.7 15 10 C13.35 10 11.7 10 10 10 C10.061875 10.721875 10.12375 11.44375 10.1875 12.1875 C9.96042388 15.59364174 8.99803167 17.2619566 7 20 C4 22 4 22 0 22 C0 14.74 0 7.48 0 0 Z " fill="#F9F6F5" transform="translate(312,224)"/>
<path d="M0 0 C1.65 0 3.3 0 5 0 C5 1.65 5 3.3 5 5 C6.32 5 7.64 5 9 5 C9.33 13.91 9.66 22.82 10 32 C10.66 32 11.32 32 12 32 C12.66 30.35 13.32 28.7 14 27 C15.98 27.33 17.96 27.66 20 28 C20 29.98 20 31.96 20 34 C21.32 34.33 22.64 34.66 24 35 C22.68 35 21.36 35 20 35 C19.67 35.66 19.34 36.32 19 37 C19 34.69 19 32.38 19 30 C17.68 30 16.36 30 15 30 C14.01 32.97 13.02 35.94 12 39 C11.34 39 10.68 39 10 39 C9.896875 39.598125 9.79375 40.19625 9.6875 40.8125 C8.90175967 43.31258286 8.03081147 44.37535082 6 46 C5.34 46 4.68 46 4 46 C4.8125 43.5625 4.8125 43.5625 6 41 C7.485 40.505 7.485 40.505 9 40 C9 38.68 9 37.36 9 36 C7.68 36 6.36 36 5 36 C4.67 34.02 4.34 32.04 4 30 C2.68 30 1.36 30 0 30 C0 29.34 0 28.68 0 28 C0.99 28 1.98 28 3 28 C3.33 19.09 3.66 10.18 4 1 C3.01 1 2.02 1 1 1 C0.67 1.66 0.34 2.32 0 3 C0 2.01 0 1.02 0 0 Z " fill="#E4D4D5" transform="translate(322,234)"/>
<path d="M0 0 C0.99 0 1.98 0 3 0 C3 8.91 3 17.82 3 27 C2.34 27.33 1.68 27.66 1 28 C-2 26 -2 26 -2.6875 22.875 C-2.790625 21.92625 -2.89375 20.9775 -3 20 C-3.99 20 -4.98 20 -6 20 C-6.433125 19.505 -6.86625 19.01 -7.3125 18.5 C-9.02209709 16.6685437 -9.02209709 16.6685437 -12.1875 16.8125 C-13.115625 16.874375 -14.04375 16.93625 -15 17 C-15 15.02 -15 13.04 -15 11 C-13.01432292 10.77213542 -11.02864583 10.54427083 -9.04296875 10.31640625 C-6.80603607 10.02829265 -6.80603607 10.02829265 -4 9 C-2.87914688 6.6569191 -2.87914688 6.6569191 -2 4 C-1.34786461 2.65949948 -0.68620031 1.32338632 0 0 Z " fill="#F45C5F" transform="translate(323,235)"/>
<path d="M0 0 C1.65 0 3.3 0 5 0 C3.68 0.33 2.36 0.66 1 1 C1 2.32 1 3.64 1 5 C12.55 5 24.1 5 36 5 C36.33 3.68 36.66 2.36 37 1 C37 2.65 37 4.3 37 6 C38.32 6 39.64 6 41 6 C41 7.32 41 8.64 41 10 C29.12 10 17.24 10 5 10 C5 9.01 5 8.02 5 7 C3.35 6.67 1.7 6.34 0 6 C0 4.02 0 2.04 0 0 Z " fill="#DEDDD5" transform="translate(459,281)"/>
<path d="M0 0 C2.8670615 2.8670615 4 4.91591468 4 9 C2.35 9.66 0.7 10.32 -1 11 C-0.34 13.31 0.32 15.62 1 18 C-1 20 -1 20 -4.9375 20.3125 C-7.43791894 20.23081662 -8.77205801 20.12109418 -11 18.9375 C-12.58433618 15.86784865 -12.36248449 13.38318857 -12 10 C-10.40592912 7.48304598 -9.38780681 7.0969517 -6.5 6.375 C-5.675 6.25125 -4.85 6.1275 -4 6 C-3.01 5.67 -2.02 5.34 -1 5 C-0.67 3.35 -0.34 1.7 0 0 Z " fill="#585858" transform="translate(401,248)"/>
<path d="M0 0 C13.63636364 0 13.63636364 0 18 4 C18 4.33 18 4.66 18 5 C13.38 5 8.76 5 4 5 C4 12.26 4 19.52 4 27 C2.68 27 1.36 27 0 27 C0 18.09 0 9.18 0 0 Z " fill="#CBA29D" transform="translate(308,219)"/>
<path d="M0 0 C8 1 8 1 10.5 3.0625 C10.995 3.701875 11.49 4.34125 12 5 C11.67 5.66 11.34 6.32 11 7 C8.69 6.34 6.38 5.68 4 5 C4.10950024 8.9589232 4.24021668 12.91686326 4.375 16.875 C4.4059375 18.00292969 4.436875 19.13085938 4.46875 20.29296875 C4.50742187 21.36933594 4.54609375 22.44570312 4.5859375 23.5546875 C4.6173584 24.54968262 4.6487793 25.54467773 4.68115234 26.56982422 C4.77247083 29.17854517 4.77247083 29.17854517 7 31 C4.69 31 2.38 31 0 31 C0 20.77 0 10.54 0 0 Z " fill="#EFD5DB" transform="translate(486,219)"/>
<path d="M0 0 C18.15 0 36.3 0 55 0 C55 1.65 55 3.3 55 5 C56.32 5 57.64 5 59 5 C59 11.27 59 17.54 59 24 C57.68 24 56.36 24 55 24 C51.56812329 17.13624657 54 8.67390962 54 1 C36.18 1 18.36 1 0 1 C0 0.67 0 0.34 0 0 Z " fill="#E1AEAD" transform="translate(282,214)"/>
<path d="M0 0 C2.33944736 0.28730055 4.6739143 0.61936779 7 1 C7.33 1.99 7.66 2.98 8 4 C8.99 4 9.98 4 11 4 C11 4.66 11 5.32 11 6 C8.36 5.67 5.72 5.34 3 5 C3 13.25 3 21.5 3 30 C2.01 29.67 1.02 29.34 0 29 C-1.35048039 26.29903923 -1.12963577 24.17273483 -1.1328125 21.15234375 C-1.13410156 19.99025391 -1.13539063 18.82816406 -1.13671875 17.63085938 C-1.13285156 16.41205078 -1.12898438 15.19324219 -1.125 13.9375 C-1.12886719 12.71482422 -1.13273437 11.49214844 -1.13671875 10.23242188 C-1.13542969 9.07162109 -1.13414062 7.91082031 -1.1328125 6.71484375 C-1.13168457 5.64355225 -1.13055664 4.57226074 -1.12939453 3.46850586 C-1 1 -1 1 0 0 Z " fill="#A8A7A3" transform="translate(309,251)"/>
<path d="M0 0 C1.32 0 2.64 0 4 0 C4.02887814 3.47914941 4.04675687 6.95826831 4.0625 10.4375 C4.07087891 11.43072266 4.07925781 12.42394531 4.08789062 13.44726562 C4.09111328 14.39150391 4.09433594 15.33574219 4.09765625 16.30859375 C4.10289307 17.18314209 4.10812988 18.05769043 4.11352539 18.95874023 C4 21 4 21 3 22 C1.15881971 22.09381302 -0.68597641 22.11743954 -2.52954102 22.11352539 C-3.71068985 22.11344986 -4.89183868 22.11337433 -6.10877991 22.11329651 C-7.3941716 22.10813522 -8.67956329 22.10297394 -10.00390625 22.09765625 C-11.31205795 22.0962413 -12.62020966 22.09482635 -13.96800232 22.09336853 C-17.45162859 22.0895441 -20.93521339 22.07971446 -24.41882324 22.06866455 C-27.97126708 22.05844882 -31.52371759 22.05387056 -35.07617188 22.04882812 C-42.05079832 22.03809212 -49.02539717 22.0210166 -56 22 C-56 20.68 -56 19.36 -56 18 C-55.36191406 17.87882812 -54.72382813 17.75765625 -54.06640625 17.6328125 C-53.24011719 17.46523438 -52.41382813 17.29765625 -51.5625 17.125 C-50.32693359 16.88136719 -50.32693359 16.88136719 -49.06640625 16.6328125 C-48.38449219 16.42398437 -47.70257813 16.21515625 -47 16 C-46.67 15.34 -46.34 14.68 -46 14 C-46 15.65 -46 17.3 -46 19 C-48.31 19.33 -50.62 19.66 -53 20 C-34.85 20 -16.7 20 2 20 C1.67 15.71 1.34 11.42 1 7 C1.33 5.68 1.66 4.36 2 3 C1.01 3.33 0.02 3.66 -1 4 C-0.67 2.68 -0.34 1.36 0 0 Z " fill="#E2646A" transform="translate(337,264)"/>
<path d="M0 0 C3.875 1.875 3.875 1.875 5 3 C5.10925945 4.70225839 5.14907374 6.40902752 5.16113281 8.11474609 C5.17074036 9.20612885 5.1803479 10.2975116 5.19024658 11.42196655 C5.19449646 12.61045197 5.19874634 13.79893738 5.203125 15.0234375 C5.20882507 16.23569 5.21452515 17.4479425 5.22039795 18.69692993 C5.22986539 21.26767092 5.23638882 23.83842414 5.24023438 26.40917969 C5.24994121 30.3511259 5.28094964 34.29255128 5.3125 38.234375 C5.31902944 40.72655939 5.32428014 43.21874752 5.328125 45.7109375 C5.3404718 46.89537445 5.3528186 48.0798114 5.36553955 49.30014038 C5.36253845 50.39782745 5.35953735 51.49551453 5.35644531 52.62646484 C5.36009094 53.5938559 5.36373657 54.56124695 5.36749268 55.55795288 C5 58 5 58 3.60272217 59.83584595 C2 61 2 61 0 61 C0.48218994 59.12453491 0.48218994 59.12453491 0.97412109 57.21118164 C2.19987532 51.67178554 2.34895423 46.27725451 2.4140625 40.62109375 C2.43342865 39.56841812 2.4527948 38.51574249 2.4727478 37.4311676 C2.53207747 34.10002506 2.57874133 30.76884708 2.625 27.4375 C2.66322272 25.16600134 2.70227689 22.89451651 2.7421875 20.62304688 C2.83774015 15.08215487 2.92292121 9.54117816 3 4 C2.01 3.67 1.02 3.34 0 3 C0 2.01 0 1.02 0 0 Z " fill="#B6E4CE" transform="translate(464,220)"/>
<path d="M0 0 C0.4125 0.474375 0.825 0.94875 1.25 1.4375 C-4.4808675 3.27542973 -10.82690436 2.49234348 -16.75 2.4375 C-16.75 8.3775 -16.75 14.3175 -16.75 20.4375 C-17.41 20.4375 -18.07 20.4375 -18.75 20.4375 C-19.95029908 18.03690183 -19.86459743 16.54389351 -19.84765625 13.8671875 C-19.84443359 12.97128906 -19.84121094 12.07539063 -19.83789062 11.15234375 C-19.82951172 10.21519531 -19.82113281 9.27804687 -19.8125 8.3125 C-19.80798828 7.36761719 -19.80347656 6.42273438 -19.79882812 5.44921875 C-19.78702357 3.11191613 -19.77055759 0.77473939 -19.75 -1.5625 C-17.50067773 -1.7579625 -15.25049858 -1.94358226 -13 -2.125 C-11.74703125 -2.22941406 -10.4940625 -2.33382812 -9.203125 -2.44140625 C-5.29501065 -2.57845551 -2.9394531 -2.62451169 0 0 Z " fill="#EDD7DA" transform="translate(506.75,257.5625)"/>
<path d="M0 0 C0.99 0 1.98 0 3 0 C3 9.57 3 19.14 3 29 C2.01 29 1.02 29 0 29 C-0.33 27.35 -0.66 25.7 -1 24 C-2.32 24 -3.64 24 -5 24 C-5 23.34 -5 22.68 -5 22 C-4.01 22 -3.02 22 -2 22 C-1.97494385 21.40461426 -1.9498877 20.80922852 -1.92407227 20.19580078 C-1.80822506 17.50530864 -1.68544804 14.8151766 -1.5625 12.125 C-1.52318359 11.18785156 -1.48386719 10.25070313 -1.44335938 9.28515625 C-1.40146484 8.38925781 -1.35957031 7.49335938 -1.31640625 6.5703125 C-1.27974854 5.74289551 -1.24309082 4.91547852 -1.20532227 4.06298828 C-1 2 -1 2 0 0 Z " fill="#B49F9B" transform="translate(327,240)"/>
<path d="M0 0 C0.33 0.66 0.66 1.32 1 2 C-0.98 4.31 -2.96 6.62 -5 9 C-4.01 9.33 -3.02 9.66 -2 10 C-2 10.66 -2 11.32 -2 12 C-4.64 12.33 -7.28 12.66 -10 13 C-10 12.34 -10 11.68 -10 11 C-15.61 11 -21.22 11 -27 11 C-26.67 18.26 -26.34 25.52 -26 33 C-24.68 33.33 -23.36 33.66 -22 34 C-20.25 35.5625 -20.25 35.5625 -19 37 C-22.375 36.6875 -22.375 36.6875 -26 36 C-28.23413013 32.64880481 -28.23847762 31.5822245 -28.1953125 27.67578125 C-28.18886719 26.64775391 -28.18242187 25.61972656 -28.17578125 24.56054688 C-28.15902344 23.48869141 -28.14226562 22.41683594 -28.125 21.3125 C-28.11597656 20.22904297 -28.10695313 19.14558594 -28.09765625 18.02929688 C-28.0740734 15.3526429 -28.04116126 12.67643203 -28 10 C-26.26363281 9.83564453 -26.26363281 9.83564453 -24.4921875 9.66796875 C-22.95306137 9.50842519 -21.41400221 9.34823461 -19.875 9.1875 C-19.11445313 9.11724609 -18.35390625 9.04699219 -17.5703125 8.97460938 C-9.96045761 8.15458191 -5.24460869 5.70736828 0 0 Z " fill="#C8D6CA" transform="translate(514,245)"/>
<path d="M0 0 C0.33 0 0.66 0 1 0 C1 10.23 1 20.46 1 31 C-0.32 31 -1.64 31 -3 31 C-3 22.42 -3 13.84 -3 5 C-2.34 5 -1.68 5 -1 5 C-0.67 3.35 -0.34 1.7 0 0 Z " fill="#128851" transform="translate(485,219)"/>
<path d="M0 0 C6.22961977 -0.05059881 12.4591868 -0.08569062 18.68896484 -0.10986328 C20.8094277 -0.11993751 22.92987661 -0.13359733 25.05029297 -0.15087891 C28.09345943 -0.17506489 31.13644266 -0.18646869 34.1796875 -0.1953125 C35.13181122 -0.20563507 36.08393494 -0.21595764 37.06491089 -0.22659302 C37.94567291 -0.22674408 38.82643494 -0.22689514 39.73388672 -0.22705078 C40.51110077 -0.231492 41.28831482 -0.23593323 42.08908081 -0.24050903 C44 0 44 0 46 2 C42.25 3.125 42.25 3.125 40 2 C38.46331135 1.77532169 36.92031946 1.59203195 35.375 1.4375 C34.55773437 1.35371094 33.74046875 1.26992187 32.8984375 1.18359375 C32.27195312 1.12300781 31.64546875 1.06242188 31 1 C32.485 2.98 32.485 2.98 34 5 C32.02 4.67 30.04 4.34 28 4 C27.67 3.01 27.34 2.02 27 1 C19.41 1.33 11.82 1.66 4 2 C5.65 2.99 7.3 3.98 9 5 C8.34 5.66 7.68 6.32 7 7 C4.69 6.01 2.38 5.02 0 4 C0 2.68 0 1.36 0 0 Z " fill="#1A8251" transform="translate(460,215)"/>
<path d="M0 0 C1.32 1.32 2.64 2.64 4 4 C-2.37159315 8.07074007 -8.46820439 9.04732069 -16 8 C-18.3621659 6.55645417 -19.34620733 5.28109334 -21 3 C-20.360625 3.165 -19.72125 3.33 -19.0625 3.5 C-11.38592494 4.75331838 -6.51189876 4.4336332 0 0 Z " fill="#939393" transform="translate(407,271)"/>
<path d="M0 0 C1.32 0 2.64 0 4 0 C4 1.32 4 2.64 4 4 C-7.88 4 -19.76 4 -32 4 C-32 3.34 -32 2.68 -32 2 C-21.44 2 -10.88 2 0 2 C0 1.34 0 0.68 0 0 Z " fill="#EBD7DD" transform="translate(496,287)"/>
<path d="M0 0 C1.11375 0.7115625 1.11375 0.7115625 2.25 1.4375 C4.61050015 2.77869327 6.36648477 3.512312 9 4 C9 5.32 9 6.64 9 8 C-2.55 8 -14.1 8 -26 8 C-26 6.68 -26 5.36 -26 4 C-23.36 3.34 -20.72 2.68 -18 2 C-18.33 3.32 -18.66 4.64 -19 6 C-11.41 6 -3.82 6 4 6 C2.68 5.34 1.36 4.68 0 4 C0 2.68 0 1.36 0 0 Z " fill="#1B8152" transform="translate(486,278)"/>
<path d="M0 0 C8 1 8 1 10.5 3.0625 C10.995 3.701875 11.49 4.34125 12 5 C11.67 5.66 11.34 6.32 11 7 C9.68 6.34 8.36 5.68 7 5 C7.33 4.34 7.66 3.68 8 3 C6.35 3 4.7 3 3 3 C3 3.66 3 4.32 3 5 C2.34 5 1.68 5 1 5 C1 12.92 1 20.84 1 29 C2.98 29.33 4.96 29.66 7 30 C7 30.33 7 30.66 7 31 C4.69 31 2.38 31 0 31 C0 20.77 0 10.54 0 0 Z " fill="#D0E5D7" transform="translate(486,219)"/>
<path d="M0 0 C1.38938077 1.96147874 2.7260411 3.96166576 4 6 C3.34 7.32 2.68 8.64 2 10 C-0.64 10 -3.28 10 -6 10 C-6.25 6.6875 -6.25 6.6875 -6 3 C-3.96080228 0.89282902 -2.95416573 0 0 0 Z " fill="#F6F6F6" transform="translate(398,258)"/>
<path d="M0 0 C2.64 0 5.28 0 8 0 C7.34 2.97 6.68 5.94 6 9 C4.35 9.33 2.7 9.66 1 10 C1 9.34 1 8.68 1 8 C0.01 8.66 -0.98 9.32 -2 10 C-2 9.01 -2 8.02 -2 7 C-2.66 7 -3.32 7 -4 7 C-3 5 -3 5 -1 3 C-0.67 2.01 -0.34 1.02 0 0 Z " fill="#5B5B5B" transform="translate(411,251)"/>
<path d="M0 0 C2.97 0 5.94 0 9 0 C9 4.29 9 8.58 9 13 C8.01 12.67 7.02 12.34 6 12 C6 11.34 6 10.68 6 10 C5.34 10 4.68 10 4 10 C3.71125 9.030625 3.4225 8.06125 3.125 7.0625 C2.35785318 3.89335797 2.35785318 3.89335797 0 3 C0 2.01 0 1.02 0 0 Z " fill="#FC5659" transform="translate(326,217)"/>
<path d="M0 0 C0.66 0.66 1.32 1.32 2 2 C1.90255465 5.60547802 1.00048121 6.99941475 -1.3125 9.8125 C-4 12 -4 12 -8 12 C-8.66 11.67 -9.32 11.34 -10 11 C-8.6970768 8.093479 -7.29126619 6.19164592 -5 4 C-4.67 3.34 -4.34 2.68 -4 2 C-3.01 2 -2.02 2 -1 2 C-0.67 1.34 -0.34 0.68 0 0 Z " fill="#EED7DC" transform="translate(519,243)"/>
<path d="M0 0 C4.95 0 9.9 0 15 0 C15 0.33 15 0.66 15 1 C12.03 1 9.06 1 6 1 C6 1.99 6 2.98 6 4 C6.99 4.33 7.98 4.66 9 5 C9.33 6.98 9.66 8.96 10 11 C6.61852341 9.55079575 4.54262915 7.62738345 2 5 C-0.70183055 3.64908472 -3.11808206 3.66141942 -6.125 3.4375 C-7.76855469 3.31181641 -7.76855469 3.31181641 -9.4453125 3.18359375 C-10.28835938 3.12300781 -11.13140625 3.06242188 -12 3 C-12 2.67 -12 2.34 -12 2 C-8.04 2 -4.08 2 0 2 C0 1.34 0 0.68 0 0 Z " fill="#EE5D63" transform="translate(320,216)"/>
<path d="M0 0 C3 1 3 1 4 3 C4.74691318 7.56635556 4.99443562 11.44868043 2.4375 15.4375 C0.70115865 17.39788539 -1.06690804 19.23457418 -3 21 C-3.99 20.34 -4.98 19.68 -6 19 C-5 16 -5 16 -2.4375 14 C1.15276893 9.58120747 0.43240998 5.48680216 0 0 Z " fill="#9D9D9D" transform="translate(408,233)"/>
<path d="M0 0 C0.33 0 0.66 0 1 0 C1.03758423 1.12027588 1.03758423 1.12027588 1.07592773 2.26318359 C1.19168213 5.63397267 1.31450128 9.00446783 1.4375 12.375 C1.47681641 13.550625 1.51613281 14.72625 1.55664062 15.9375 C1.59853516 17.05898438 1.64042969 18.18046875 1.68359375 19.3359375 C1.72025146 20.37282715 1.75690918 21.4097168 1.79467773 22.47802734 C1.84164223 24.99425166 1.84164223 24.99425166 3 27 C5.37570543 27.0816082 7.74855841 27.14077222 10.125 27.1875 C11.12273437 27.22520508 11.12273437 27.22520508 12.140625 27.26367188 C16.86902292 27.33320714 19.95121479 26.40278375 24 24 C24 25.32 24 26.64 24 28 C20.99984088 29.00005304 19.02576244 29.11575585 15.89453125 29.09765625 C14.56578979 29.09390991 14.56578979 29.09390991 13.21020508 29.09008789 C12.0889624 29.08098389 10.96771973 29.07187988 9.8125 29.0625 C6.244375 29.041875 2.67625 29.02125 -1 29 C-0.67 19.43 -0.34 9.86 0 0 Z " fill="#DF686A" transform="translate(307,253)"/>
<path d="M0 0 C0.66 0.33 1.32 0.66 2 1 C1 3 1 3 -2 5 C-1.33613281 4.855625 -0.67226563 4.71125 0.01171875 4.5625 C0.89472656 4.376875 1.77773438 4.19125 2.6875 4 C3.55761719 3.814375 4.42773438 3.62875 5.32421875 3.4375 C7.93712964 3.01027953 10.35813038 2.92383799 13 3 C13 2.34 13 1.68 13 1 C13.99 1.33 14.98 1.66 16 2 C8.15190229 7.23206514 1.17688501 7.27123798 -8 7 C-8 5.35 -8 3.7 -8 2 C-6.865625 1.855625 -5.73125 1.71125 -4.5625 1.5625 C-1.19222799 1.38828522 -1.19222799 1.38828522 0 0 Z " fill="#27895A" transform="translate(494,248)"/>
<path d="M0 0 C0.33 0.66 0.66 1.32 1 2 C1.66 2.33 2.32 2.66 3 3 C2.01 3.495 2.01 3.495 1 4 C1.33 4.99 1.66 5.98 2 7 C2.66 7 3.32 7 4 7 C4 7.99 4 8.98 4 10 C3.01 10 2.02 10 1 10 C0.566875 9.505 0.13375 9.01 -0.3125 8.5 C-2.02209709 6.6685437 -2.02209709 6.6685437 -5.1875 6.8125 C-6.115625 6.874375 -7.04375 6.93625 -8 7 C-8 5.02 -8 3.04 -8 1 C-5.36 0.67 -2.72 0.34 0 0 Z " fill="#EB6665" transform="translate(316,245)"/>
<path d="M0 0 C0.33 0 0.66 0 1 0 C1.01030746 0.57549591 1.02061493 1.15099182 1.03123474 1.743927 C1.13961215 7.74638514 1.25418366 13.74870262 1.37231445 19.75097656 C1.41556337 21.98955332 1.45724536 24.22816094 1.49731445 26.46679688 C1.55526074 29.68889656 1.61888466 32.91084239 1.68359375 36.1328125 C1.70030624 37.12991241 1.71701874 38.12701233 1.73423767 39.15432739 C1.83416289 43.86632769 2.04107292 48.36575453 3 53 C1.02 53.495 1.02 53.495 -1 54 C-0.67 36.18 -0.34 18.36 0 0 Z " fill="#0F8750" transform="translate(469,225)"/>
<path d="M0 0 C7.4377077 4.22140167 7.4377077 4.22140167 8.55078125 7.7421875 C9.69164325 13.4762591 10.24104252 19.42022357 7.66015625 24.78515625 C6.19765007 26.95654777 4.69311098 29.00454778 3 31 C2.67 30.01 2.34 29.02 2 28 C2.61875 27.154375 3.2375 26.30875 3.875 25.4375 C6.8052115 21.34337174 7.22571751 16.94966258 7 12 C5.82535799 8.64794393 5.82535799 8.64794393 4 6 C3.33333333 4.66666667 2.66666667 3.33333333 2 2 C1.34 2 0.68 2 0 2 C0 1.34 0 0.68 0 0 Z " fill="#2A865B" transform="translate(509,218)"/>
<path d="M0 0 C0 6.93 0 13.86 0 21 C-0.99 21 -1.98 21 -3 21 C-3 14.4 -3 7.8 -3 1 C-1 0 -1 0 0 0 Z " fill="#A7A7A2" transform="translate(312,224)"/>
<path d="M0 0 C2.33944736 0.28730055 4.6739143 0.61936779 7 1 C7.33 1.99 7.66 2.98 8 4 C8.99 4 9.98 4 11 4 C11 4.66 11 5.32 11 6 C8.5625 5.625 8.5625 5.625 6 5 C5.67 4.34 5.34 3.68 5 3 C2.47266765 2.34444881 2.47266765 2.34444881 0 2 C0.1102391 5.72975606 0.24078413 9.45853583 0.375 13.1875 C0.4059375 14.24259766 0.436875 15.29769531 0.46875 16.38476562 C0.50742187 17.40634766 0.54609375 18.42792969 0.5859375 19.48046875 C0.6173584 20.41785889 0.6487793 21.35524902 0.68115234 22.32104492 C1.02022831 25.16995808 1.82257457 27.39520444 3 30 C2.01 29.67 1.02 29.34 0 29 C-1.35048039 26.29903923 -1.12963577 24.17273483 -1.1328125 21.15234375 C-1.13410156 19.99025391 -1.13539063 18.82816406 -1.13671875 17.63085938 C-1.13285156 16.41205078 -1.12898438 15.19324219 -1.125 13.9375 C-1.12886719 12.71482422 -1.13273437 11.49214844 -1.13671875 10.23242188 C-1.13542969 9.07162109 -1.13414062 7.91082031 -1.1328125 6.71484375 C-1.13168457 5.64355225 -1.13055664 4.57226074 -1.12939453 3.46850586 C-1 1 -1 1 0 0 Z " fill="#C99893" transform="translate(309,251)"/>
<path d="M0 0 C0.99 0 1.98 0 3 0 C2.5188509 5.77378925 0.81532819 9.95859836 -2 15 C-2.33 14.34 -2.66 13.68 -3 13 C-3.66 13 -4.32 13 -5 13 C-4.39254603 8.14036821 -2.27241033 4.2594482 0 0 Z " fill="#949494" transform="translate(419,253)"/>
<path d="M0 0 C1.32 0 2.64 0 4 0 C4 3.63 4 7.26 4 11 C3.34 10.01 2.68 9.02 2 8 C1.67 10.64 1.34 13.28 1 16 C0.34 16 -0.32 16 -1 16 C-1.02692484 13.70839681 -1.04636124 11.41670454 -1.0625 9.125 C-1.07410156 7.84882813 -1.08570313 6.57265625 -1.09765625 5.2578125 C-1 2 -1 2 0 0 Z " fill="#BAA7A3" transform="translate(342,269)"/>
<path d="M0 0 C2.00720923 0.28674418 4.0085944 0.61866701 6 1 C6.125 3.875 6.125 3.875 6 7 C5.34 7.66 4.68 8.32 4 9 C0.46428571 8.46428571 0.46428571 8.46428571 -1 7 C-1.125 4 -1.125 4 -1 1 C-0.67 0.67 -0.34 0.34 0 0 Z " fill="#979797" transform="translate(395,235)"/>
<path d="M0 0 C0.99 0 1.98 0 3 0 C3 6.27 3 12.54 3 19 C0 16 0 16 -0.29296875 12.20703125 C-0.2730801 10.74190067 -0.23737968 9.27691633 -0.1875 7.8125 C-0.17396484 7.06291016 -0.16042969 6.31332031 -0.14648438 5.54101562 C-0.11118539 3.69370233 -0.05737917 1.84675934 0 0 Z " fill="#148A53" transform="translate(483,256)"/>
<path d="M0 0 C0.598125 0.226875 1.19625 0.45375 1.8125 0.6875 C1.8125 1.6775 1.8125 2.6675 1.8125 3.6875 C0.8225 4.3475 -0.1675 5.0075 -1.1875 5.6875 C-1.92093428 8.75306598 -1.92093428 8.75306598 -2.1875 11.6875 C-3.1775 11.0275 -4.1675 10.3675 -5.1875 9.6875 C-5.8376548 3.72774768 -5.8376548 3.72774768 -3.9375 0.6875 C-2.1875 -0.3125 -2.1875 -0.3125 0 0 Z " fill="#9D9D9D" transform="translate(394.1875,255.3125)"/>
<path d="M0 0 C0.99 0.495 0.99 0.495 2 1 C1.67 1.66 1.34 2.32 1 3 C3.64 3 6.28 3 9 3 C10.17571451 6.67410785 10.07366746 10.16929183 10 14 C9.67 14 9.34 14 9 14 C9 12.35 9 10.7 9 9 C7.35 9 5.7 9 4 9 C4 7.35 4 5.7 4 4 C2.68 4 1.36 4 0 4 C0 2.68 0 1.36 0 0 Z " fill="#D57776" transform="translate(282,215)"/>
<path d="M0 0 C0.33 0 0.66 0 1 0 C1.33 7.26 1.66 14.52 2 22 C3.32 22.33 4.64 22.66 6 23 C7.75 24.5625 7.75 24.5625 9 26 C5.625 25.6875 5.625 25.6875 2 25 C-0.20192224 21.69711664 -0.23959968 20.72537273 -0.1953125 16.89453125 C-0.18886719 15.91162109 -0.18242187 14.92871094 -0.17578125 13.91601562 C-0.15902344 12.89185547 -0.14226562 11.86769531 -0.125 10.8125 C-0.11597656 9.77673828 -0.10695313 8.74097656 -0.09765625 7.67382812 C-0.0740786 5.11565315 -0.0411703 2.55794252 0 0 Z " fill="#CAE6D3" transform="translate(486,256)"/>
<path d="M0 0 C1.65 0 3.3 0 5 0 C5 8.25 5 16.5 5 25 C4.34 25 3.68 25 3 25 C3.03480469 23.69804687 3.06960938 22.39609375 3.10546875 21.0546875 C3.13361901 19.32813796 3.16091784 17.60157439 3.1875 15.875 C3.21263672 15.0190625 3.23777344 14.163125 3.26367188 13.28125 C3.32398809 8.05384474 2.85261993 4.56718676 0 0 Z " fill="#188351" transform="translate(495,220)"/>
<path d="M0 0 C7.38461538 0.49230769 7.38461538 0.49230769 10.5 3.0625 C10.995 3.701875 11.49 4.34125 12 5 C11.67 5.66 11.34 6.32 11 7 C9.68 6.34 8.36 5.68 7 5 C7.33 4.34 7.66 3.68 8 3 C6.35 3 4.7 3 3 3 C3 3.66 3 4.32 3 5 C2.34 5 1.68 5 1 5 C0.67 3.35 0.34 1.7 0 0 Z " fill="#C2DCC9" transform="translate(486,219)"/>
<path d="M0 0 C1.485 0.99 1.485 0.99 3 2 C3.22137393 4.62697064 3.28162025 7.00893964 3.1875 9.625 C3.16719727 10.68460938 3.16719727 10.68460938 3.14648438 11.765625 C3.1111104 13.51074128 3.05730221 15.25546608 3 17 C0.82307432 12.79127702 -0.12422287 9.56516121 -0.0625 4.8125 C-0.05347656 3.91144531 -0.04445313 3.01039063 -0.03515625 2.08203125 C-0.02355469 1.39496094 -0.01195312 0.70789063 0 0 Z " fill="#EBDBDF" transform="translate(519,227)"/>
<path d="M0 0 C1.32 0 2.64 0 4 0 C3.83628906 0.54140625 3.67257812 1.0828125 3.50390625 1.640625 C2.91409413 4.40222593 2.90390692 6.92818139 2.9375 9.75 C2.94652344 10.73484375 2.95554687 11.7196875 2.96484375 12.734375 C2.97644531 13.48203125 2.98804688 14.2296875 3 15 C1 14 1 14 0 13 C-0.07258946 10.81360547 -0.08373783 8.62499611 -0.0625 6.4375 C-0.05347656 5.23996094 -0.04445313 4.04242188 -0.03515625 2.80859375 C-0.02355469 1.88175781 -0.01195312 0.95492187 0 0 Z " fill="#BA9290" transform="translate(336,220)"/>
<path d="M0 0 C1.77007714 -0.08114106 3.54122098 -0.13925505 5.3125 -0.1875 C6.29863281 -0.22230469 7.28476562 -0.25710937 8.30078125 -0.29296875 C11 0 11 0 12.85546875 1.51171875 C13.23316406 2.00285156 13.61085938 2.49398437 14 3 C12.04174127 3.02694851 10.08337774 3.04637218 8.125 3.0625 C7.03445313 3.07410156 5.94390625 3.08570313 4.8203125 3.09765625 C2 3 2 3 0 2 C0 1.34 0 0.68 0 0 Z " fill="#A8A7A3" transform="translate(310,221)"/>
<path d="M0 0 C0.66 0.33 1.32 0.66 2 1 C1.979375 1.7425 1.95875 2.485 1.9375 3.25 C1.99328688 5.70462279 2.3069904 7.66109261 3 10 C2.01 10 1.02 10 0 10 C-0.33 8.35 -0.66 6.7 -1 5 C-1.33 5.99 -1.66 6.98 -2 8 C-2.99 8.495 -2.99 8.495 -4 9 C-4 7.02 -4 5.04 -4 3 C-2.68 2.67 -1.36 2.34 0 2 C0 1.34 0 0.68 0 0 Z " fill="#505050" transform="translate(390,231)"/>
<path d="M0 0 C0 8.91 0 17.82 0 27 C-0.33 27 -0.66 27 -1 27 C-1 19.41 -1 11.82 -1 4 C-1.66 3.67 -2.32 3.34 -3 3 C-3.33 2.34 -3.66 1.68 -4 1 C-2 0 -2 0 0 0 Z " fill="#E4656B" transform="translate(308,219)"/>
<path d="M0 0 C1.36365959 3.68188089 0.44698622 5.47297109 -1 9 C-0.67 9.99 -0.34 10.98 0 12 C-2.31 12.33 -4.62 12.66 -7 13 C-6.01 12.67 -5.02 12.34 -4 12 C-3.67 9.36 -3.34 6.72 -3 4 C-2.34 4 -1.68 4 -1 4 C-0.67 2.68 -0.34 1.36 0 0 Z " fill="#EF5F63" transform="translate(335,269)"/>
<path d="M0 0 C0.66 1.32 1.32 2.64 2 4 C0.37581255 4.08090971 -1.24951745 4.13914995 -2.875 4.1875 C-3.77992188 4.22230469 -4.68484375 4.25710938 -5.6171875 4.29296875 C-6.79667969 4.14794922 -6.79667969 4.14794922 -8 4 C-8.66 3.01 -9.32 2.02 -10 1 C-6.7 0.67 -3.4 0.34 0 0 Z " fill="#9B9B9B" transform="translate(422,274)"/>
<path d="M0 0 C2.97 0.495 2.97 0.495 6 1 C6 2.98 6 4.96 6 7 C7.32 7.33 8.64 7.66 10 8 C8.68 8 7.36 8 6 8 C5.67 8.66 5.34 9.32 5 10 C5 7.69 5 5.38 5 3 C3.68 3 2.36 3 1 3 C0.67 4.65 0.34 6.3 0 8 C-0.33 8 -0.66 8 -1 8 C-1.125 2.25 -1.125 2.25 0 0 Z " fill="#FBE1DC" transform="translate(336,261)"/>
<path d="M0 0 C1.10348268 3.31044803 0.99444068 5.65506316 0 9 C-0.99 9.495 -0.99 9.495 -2 10 C-2.99 9.34 -3.98 8.68 -5 8 C-4.45773019 4.20411134 -2.79872437 2.52788007 0 0 Z " fill="#E3E3E3" transform="translate(410,247)"/>
<path d="M0 0 C0.33 0 0.66 0 1 0 C1.08126109 2.72977064 1.14061663 5.4571017 1.1875 8.1875 C1.22520508 9.34088867 1.22520508 9.34088867 1.26367188 10.51757812 C1.32376277 15.18463768 1.02808581 18.19391734 -2 22 C-2.33 22 -2.66 22 -3 22 C-3 20.35 -3 18.7 -3 17 C-2.34 17 -1.68 17 -1 17 C-0.67 11.39 -0.34 5.78 0 0 Z " fill="#C3F1DE" transform="translate(498,226)"/>
<path d="M0 0 C0.33 0 0.66 0 1 0 C1 5.28 1 10.56 1 16 C-0.32 15.67 -1.64 15.34 -3 15 C-4.25 12.4375 -4.25 12.4375 -5 10 C-4.34 10 -3.68 10 -3 10 C-3 10.66 -3 11.32 -3 12 C-2.34 12 -1.68 12 -1 12 C-0.67 8.04 -0.34 4.08 0 0 Z " fill="#E36C70" transform="translate(335,217)"/>
<path d="M0 0 C5.36964286 0.34642857 5.36964286 0.34642857 8 1 C9.5625 2.875 9.5625 2.875 10 5 C9.67 5.99 9.34 6.98 9 8 C7.87411986 7.04270084 6.7493285 6.08412105 5.625 5.125 C4.99851562 4.59132812 4.37203125 4.05765625 3.7265625 3.5078125 C2.44163349 2.38567993 1.20628025 1.20628025 0 0 Z " fill="#E27175" transform="translate(320,219)"/>
<path d="M0 0 C0.33 0 0.66 0 1 0 C1 1.65 1 3.3 1 5 C-1.31 5.33 -3.62 5.66 -6 6 C-6 6.66 -6 7.32 -6 8 C-6.99 8 -7.98 8 -9 8 C-9 6.68 -9 5.36 -9 4 C-6.03 3.34 -3.06 2.68 0 2 C0 1.34 0 0.68 0 0 Z " fill="#E1726F" transform="translate(290,278)"/>
<path d="M0 0 C0.99 0 1.98 0 3 0 C2.67 2.31 2.34 4.62 2 7 C1.01 7 0.02 7 -1 7 C-2 4 -2 4 -1.0625 1.8125 C-0.5365625 0.9153125 -0.5365625 0.9153125 0 0 Z " fill="#9B9B9B" transform="translate(419,253)"/>
<path d="M0 0 C0.33 1.32 0.66 2.64 1 4 C-2.61867559 5.2062252 -5.92506251 5.10816918 -9.6875 5.0625 C-10.38939453 5.05798828 -11.09128906 5.05347656 -11.81445312 5.04882812 C-13.54300538 5.03706927 -15.27151365 5.01913454 -17 5 C-17 4.67 -17 4.34 -17 4 C-15.78763672 3.94392578 -15.78763672 3.94392578 -14.55078125 3.88671875 C-13.48214844 3.82097656 -12.41351563 3.75523437 -11.3125 3.6875 C-10.25675781 3.62949219 -9.20101563 3.57148438 -8.11328125 3.51171875 C-4.76990036 2.96217936 -2.76473738 1.91325982 0 0 Z " fill="#EC7C81" transform="translate(330,277)"/>
<path d="M0 0 C0.66 1.32 1.32 2.64 2 4 C0.35 5.65 -1.3 7.3 -3 9 C-3.66 7.68 -4.32 6.36 -5 5 C-3.35 3.35 -1.7 1.7 0 0 Z " fill="#939393" transform="translate(407,245)"/>
<path d="M0 0 C0.99 0 1.98 0 3 0 C3 1.65 3 3.3 3 5 C1.02 5.99 1.02 5.99 -1 7 C-0.67 4.69 -0.34 2.38 0 0 Z " fill="#F1F1F1" transform="translate(398,237)"/>
<path d="M0 0 C2.64 0.33 5.28 0.66 8 1 C8.66 2.98 9.32 4.96 10 7 C8.33073546 6.02526874 6.66464358 5.04510211 5 4.0625 C4.071875 3.51722656 3.14375 2.97195312 2.1875 2.41015625 C1.465625 1.94480469 0.74375 1.47945312 0 1 C0 0.67 0 0.34 0 0 Z " fill="#C6F1E2" transform="translate(506,216)"/>
<path d="M0 0 C0.33 0 0.66 0 1 0 C1 4.29 1 8.58 1 13 C-0.65 13.33 -2.3 13.66 -4 14 C-4 13.34 -4 12.68 -4 12 C-3.01 11.67 -2.02 11.34 -1 11 C-0.67 7.37 -0.34 3.74 0 0 Z " fill="#D27474" transform="translate(340,272)"/>
<path d="M0 0 C0.556875 0.226875 1.11375 0.45375 1.6875 0.6875 C0.0375 2.0075 -1.6125 3.3275 -3.3125 4.6875 C-4.6325 4.0275 -5.9525 3.3675 -7.3125 2.6875 C-2.88173077 -0.38942308 -2.88173077 -0.38942308 0 0 Z " fill="#9E9E9E" transform="translate(409.3125,273.3125)"/>
<path d="M0 0 C0.99 0 1.98 0 3 0 C2.67 1.32 2.34 2.64 2 4 C0.02 4.33 -1.96 4.66 -4 5 C-2.1875 2.5 -2.1875 2.5 0 0 Z " fill="#FCF2EC" transform="translate(317,240)"/>
<path d="M0 0 C2 3 2 3 2 6 C0.68 6 -0.64 6 -2 6 C-2.33 4.35 -2.66 2.7 -3 1 C-1 2 -1 2 0 3 C0 2.01 0 1.02 0 0 Z " fill="#B5AFAC" transform="translate(339,232)"/>
<path d="M0 0 C3.057952 1.73559438 5.63379989 3.38472619 8 6 C7.67 6.66 7.34 7.32 7 8 C5.2925002 6.71937515 3.62626404 5.38232443 2 4 C2 3.34 2 2.68 2 2 C1.34 2 0.68 2 0 2 C0 1.34 0 0.68 0 0 Z " fill="#1F8C5D" transform="translate(509,218)"/>
<path d="M0 0 C1.62463842 -0.05395478 3.24978541 -0.09277195 4.875 -0.125 C5.77992188 -0.14820313 6.68484375 -0.17140625 7.6171875 -0.1953125 C10 0 10 0 12 2 C7.47907032 3.45606519 4.48351204 2.27032841 0 1 C0 0.67 0 0.34 0 0 Z " fill="#298F5F" transform="translate(494,215)"/>
<path d="M0 0 C0.99 0 1.98 0 3 0 C1.95125002 2.62187494 1.35068687 3.79371361 -1.125 5.25 C-1.74375 5.4975 -2.3625 5.745 -3 6 C-1.125 1.125 -1.125 1.125 0 0 Z " fill="#FFE1E0" transform="translate(329,274)"/>
<path d="M0 0 C0.33 0.99 0.66 1.98 1 3 C0.01 3 -0.98 3 -2 3 C-2 4.32 -2 5.64 -2 7 C-2.66 6.67 -3.32 6.34 -4 6 C-4.625 3.4375 -4.625 3.4375 -5 1 C-3.35 0.67 -1.7 0.34 0 0 Z " fill="#696969" transform="translate(405,260)"/>
<path d="M0 0 C2 3 2 3 2 5 C-0.31 5.33 -2.62 5.66 -5 6 C-4.67 5.01 -4.34 4.02 -4 3 C-3.01 2.67 -2.02 2.34 -1 2 C-0.67 1.34 -0.34 0.68 0 0 Z " fill="#009750" transform="translate(503,246)"/>
<path d="M0 0 C0.33 0 0.66 0 1 0 C1 1.98 1 3.96 1 6 C-0.32 5.67 -1.64 5.34 -3 5 C-1.125 1.125 -1.125 1.125 0 0 Z " fill="#E8FEF7" transform="translate(458,280)"/>
<path d="M0 0 C2 1.375 2 1.375 4 3 C4 3.66 4 4.32 4 5 C2.35 5 0.7 5 -1 5 C-0.67 3.35 -0.34 1.7 0 0 Z " fill="#666666" transform="translate(418,270)"/>
<path d="M0 0 C0.33 1.32 0.66 2.64 1 4 C2.65 4 4.3 4 6 4 C6 4.33 6 4.66 6 5 C3.69 5.33 1.38 5.66 -1 6 C-1.625 4.125 -1.625 4.125 -2 2 C-1.34 1.34 -0.68 0.68 0 0 Z " fill="#D8FAEC" transform="translate(458,215)"/>
</svg>
